<svg xmlns="http://www.w3.org/2000/svg" width="60" height="24" viewBox="0 0 60 24"><g><g><g><path fill="#332208" d="M25 9h4v2h-4z"/></g><g><path fill="#332208" d="M59.142 6.01A1 1 0 0 1 60 7v8.099a3.781 3.781 0 0 1-2.39 3.528l-3.238 1.3a1.004 1.004 0 0 1-.372.071h-.36a5.978 5.978 0 0 1-11.282 0H15.641a5.978 5.978 0 0 1-11.283 0H1a1 1 0 0 1-1-1v-5.937a4.565 4.565 0 0 1 2.294-3.953 23.63 23.63 0 0 1 11.435-3.1l3.428-1.87A33.994 33.994 0 0 1 33.387 0h1.18A33.678 33.678 0 0 1 48.5 3a34.273 34.273 0 0 1 3.849 2.04zM14 17.997A4 4 0 1 0 6 17.996a4 4 0 0 0 7.999.002zM32 8H14c-3.757.002-7.45.982-10.713 2.845A2.558 2.558 0 0 0 2 13.061v4.937h2a6 6 0 0 1 12 0h16zm0-5.955c-4.86.21-9.61 1.527-13.885 3.85L17.922 6H32zM34 6h10.586l1.746-1.746A31.652 31.652 0 0 0 34.566 2H34zm18 11.998A4 4 0 1 0 44 17.996a4 4 0 0 0 7.999.002zm6-10.132l-6.142-.877a1.003 1.003 0 0 1-.388-.142 32.067 32.067 0 0 0-3.17-1.734l-2.593 2.593a.999.999 0 0 1-.707.293H34v9.998h8.003a6.005 6.005 0 0 1 6.61-5.969c.074.007.145.024.22.033.124.019.25.033.373.058.077.016.15.04.226.058.116.028.233.054.347.089.085.026.15.055.25.09.1.037.215.074.3.11.085.037.157.076.25.12.091.043.192.089.273.132.081.042.151.086.237.142.086.057.176.103.256.156.08.054.156.115.232.172.076.057.153.107.229.171.076.065.15.139.22.2.068.062.136.118.205.188.069.07.138.155.2.217.062.063.122.124.186.2.064.077.126.164.18.238.056.075.109.14.166.221.057.082.112.173.157.253.045.08.098.153.145.24.047.085.088.178.13.263.042.085.089.167.124.257s.066.184.1.275c.034.091.07.18.1.273.03.093.05.19.076.284.026.095.055.196.075.287.02.091.032.191.048.291.016.1.036.2.046.3.01.1.012.208.018.3.006.092.018.183.018.275l2.868-1.152A1.79 1.79 0 0 0 58 15.1v-4.1h-3V9h3z"/></g></g></g></svg>