<svg xmlns="http://www.w3.org/2000/svg" width="36" height="36" viewBox="0 0 36 36"><g><g><g><path fill="#332208" d="M20.813 10.68a.703.703 0 1 0 0 1.406.703.703 0 0 0 0-1.406z"/></g><g><path fill="#332208" d="M16.55 24.42a.704.704 0 1 0-.996-.994.704.704 0 0 0 .996.994z"/></g><g><path fill="#332208" d="M.204 27.84a.702.702 0 0 1 .001-.99l3.345-3.355a2.1 2.1 0 0 1 1.88-.582c1.588-2.933 4.545-4.495 7.93-4.495 1.221 0 2.405.236 3.521.703h7.84c.864 0 1.663.402 2.187 1.047l4.15-4.264a2.82 2.82 0 0 1 3.945-.313 2.815 2.815 0 0 1 .334 3.963c-6.748 8.063-6.328 7.568-6.377 7.615a6.296 6.296 0 0 1-4.414 1.793H15.2c-.55 0-1.07.21-1.465.591l-.733.707a2.124 2.124 0 0 1-.5 2.182l-3.41 3.357a.703.703 0 0 1-.992-.006zm6.447-4.228l5.51 5.506.597-.576a3.496 3.496 0 0 1 2.44-.986h9.348a4.897 4.897 0 0 0 3.408-1.37l6.307-7.537a1.408 1.408 0 0 0-.165-1.984 1.411 1.411 0 0 0-1.982.167c-.025.03-.59.609-4.604 4.733a2.815 2.815 0 0 1-2.788 3.18h-5.737a.703.703 0 1 1 0-1.406h5.737c.775 0 1.406-.63 1.406-1.406a1.41 1.41 0 0 0-1.406-1.406h-7.985a.702.702 0 0 1-.282-.059 7.678 7.678 0 0 0-3.095-.644c-3.005 0-5.421 1.373-6.709 3.788zm-4.956 3.735l6.909 6.96 2.906-2.863a.706.706 0 0 0 .065-.912c-.037-.05-6.052-6.077-6.159-6.142a.702.702 0 0 0-.87.099z"/></g><g><path fill="#332208" d="M10.97 14.902a2.111 2.111 0 0 1-2.11-2.109V2.11C8.86.946 9.806 0 10.97 0h16.875c1.163 0 2.11.946 2.11 2.109v10.684a2.112 2.112 0 0 1-2.11 2.11zM28.547 4.218H10.266v1.405h18.282zm-.703 9.278a.704.704 0 0 0 .703-.703V7.03H10.266v5.764c0 .388.316.703.703.703zM10.97 1.406a.704.704 0 0 0-.703.703v.703h18.282v-.703a.704.704 0 0 0-.703-.703z"/></g><g><path fill="#332208" d="M26.436 10.68h-2.813a.703.703 0 0 0 0 1.406h2.813a.703.703 0 1 0 0-1.406z"/></g></g></g></svg>