<svg xmlns="http://www.w3.org/2000/svg" width="30" height="30" viewBox="0 0 30 30"><g><g><g><path fill="#c5ac2d" d="M17.872 15.001a2.871 2.871 0 1 1-5.742 0 2.871 2.871 0 0 1 5.742 0z"/></g><g><path fill="#c5ac2d" d="M21.716 9.921c.118.304.258.76.297 1.6.041.908.05 1.18.05 3.48s-.009 2.573-.05 3.481c-.039.84-.18 1.296-.297 1.6a2.852 2.852 0 0 1-1.635 1.634c-.303.118-.76.258-1.6.297-.907.041-1.18.05-3.48.05s-2.572-.009-3.48-.05c-.84-.039-1.296-.179-1.6-.297a2.667 2.667 0 0 1-.99-.644 2.67 2.67 0 0 1-.644-.99c-.118-.304-.258-.76-.297-1.6-.041-.908-.05-1.18-.05-3.48s.009-2.573.05-3.481c.039-.84.179-1.296.297-1.6a2.67 2.67 0 0 1 .644-.99c.278-.286.616-.506.99-.644.304-.118.76-.258 1.6-.297.908-.041 1.18-.05 3.48-.05s2.573.009 3.481.05c.84.039 1.296.179 1.6.297.374.138.712.358.99.644.286.278.506.616.644.99zm-2.292 5.08a4.423 4.423 0 1 0-8.845 0 4.423 4.423 0 0 0 8.845 0zm1.209-4.598a1.034 1.034 0 1 0-2.067 0 1.034 1.034 0 0 0 2.067 0z"/></g><g><path fill="#c5ac2d" d="M30 15c0 8.283-6.717 15-15 15-8.283 0-15-6.717-15-15C0 6.717 6.717 0 15 0c8.283 0 15 6.717 15 15zm-6.387 0c0-2.34-.01-2.633-.051-3.551-.042-.917-.188-1.543-.401-2.09a4.222 4.222 0 0 0-.993-1.526 4.222 4.222 0 0 0-1.526-.994c-.548-.213-1.174-.358-2.09-.4-.92-.042-1.213-.052-3.552-.052-2.34 0-2.633.01-3.551.052-.917.042-1.543.187-2.09.4a4.219 4.219 0 0 0-1.526.994 4.22 4.22 0 0 0-.994 1.525c-.213.548-.359 1.174-.4 2.09-.042.92-.052 1.213-.052 3.552 0 2.34.01 2.633.052 3.551.042.917.187 1.543.4 2.09a4.22 4.22 0 0 0 .994 1.526c.43.439.95.778 1.525.994.548.213 1.174.358 2.09.4.92.042 1.213.052 3.552.052 2.34 0 2.633-.01 3.551-.052.917-.042 1.543-.187 2.09-.4a4.404 4.404 0 0 0 2.52-2.52c.213-.547.359-1.173.4-2.09.042-.918.052-1.212.052-3.551z"/></g></g></g></svg>