<svg xmlns="http://www.w3.org/2000/svg" width="60" height="48" viewBox="0 0 60 48"><g><g><g><path fill="#c5ac2d" d="M38.454 41.907H5.576a3.822 3.822 0 0 1-3.818-3.818V11.786a3.822 3.822 0 0 1 3.818-3.818.879.879 0 0 0 0-1.758A5.582 5.582 0 0 0 0 11.786v26.303a5.582 5.582 0 0 0 5.576 5.576h32.878a.879.879 0 0 0 0-1.758z"/></g><g><path fill="#c5ac2d" d="M54.42 6.21H25.3a.879.879 0 1 0 0 1.758H54.42a3.822 3.822 0 0 1 3.818 3.818v26.303a3.822 3.822 0 0 1-3.818 3.818h-.94a.879.879 0 1 0 0 1.758h.94a5.582 5.582 0 0 0 5.576-5.576V11.786A5.582 5.582 0 0 0 54.42 6.21z"/></g><g><path fill="#c5ac2d" d="M8.45 7.095c0-.485.394-.879.879-.879a4.763 4.763 0 0 0 4.757-4.757.879.879 0 0 1 1.758 0 4.763 4.763 0 0 0 4.758 4.757.879.879 0 1 1 0 1.758 4.763 4.763 0 0 0-4.758 4.758.879.879 0 0 1-1.758 0A4.763 4.763 0 0 0 9.33 7.974a.879.879 0 0 1-.879-.879zm4.144 0c.981.57 1.8 1.39 2.371 2.371.57-.98 1.39-1.8 2.371-2.37a6.564 6.564 0 0 1-2.37-2.372c-.571.981-1.39 1.8-2.372 2.371z"/></g><g><path fill="#c5ac2d" d="M49.724 41.907a.879.879 0 0 1 0 1.758 2.882 2.882 0 0 0-2.879 2.879.879.879 0 0 1-1.757 0 2.882 2.882 0 0 0-2.88-2.879.879.879 0 1 1 0-1.758 2.882 2.882 0 0 0 2.88-2.878.879.879 0 0 1 1.757 0 2.882 2.882 0 0 0 2.879 2.878zm-2.713.88a4.675 4.675 0 0 1-1.045-1.045c-.29.401-.643.754-1.044 1.044.401.29.754.644 1.044 1.045.29-.401.644-.754 1.045-1.045z"/></g><g><path fill="#c5ac2d" d="M13.279 16.55a.879.879 0 0 0-.879.879v15.018c0 .428.308.793.73.866.061.01.15.025 1.78.025.791 0 1.946-.003 3.637-.013a.879.879 0 0 0-.005-1.757h-.005c-1.333.007-3.284.015-4.38.012V17.429a.88.88 0 0 0-.878-.879z"/></g><g><path fill="#c5ac2d" d="M37.283 33.178a.875.875 0 0 0 1.224-.212l4.952-7.029 4.944 7.028a.878.878 0 1 0 1.437-1.011l-5.306-7.543 4.562-6.476a.879.879 0 0 0-1.437-1.012l-4.2 5.96-4.192-5.96a.879.879 0 1 0-1.438 1.012l4.555 6.475-5.314 7.543a.879.879 0 0 0 .213 1.225z"/></g><g><path fill="#c5ac2d" d="M24.744 32.407c.964.616 2.055.93 3.242.931h.01a6.319 6.319 0 0 0 2.87-.662c2.17-1.093 3.316-2.792 3.316-4.916V17.43a.879.879 0 0 0-1.758 0V27.76c0 1.456-.768 2.55-2.349 3.346a4.573 4.573 0 0 1-2.08.474h-.007a4.207 4.207 0 0 1-2.298-.654c-1.368-.874-1.952-1.818-1.952-3.155V17.43a.879.879 0 0 0-1.758 0V27.77c0 1.932.904 3.448 2.764 4.636z"/></g></g></g></svg>