<svg xmlns="http://www.w3.org/2000/svg" width="47" height="32" viewBox="0 0 47 32"><g><g><g><path fill="#332208" d="M27.712 6.35a3.979 3.979 0 0 1-1.143 2.786 3.85 3.85 0 0 1-4.91.487 3.937 3.937 0 0 1-1.434-1.774 4.005 4.005 0 0 1-.22-2.284c.151-.766.523-1.47 1.068-2.022a3.873 3.873 0 0 1 1.995-1.078 3.837 3.837 0 0 1 2.248.228c.711.3 1.318.809 1.745 1.46.426.65.652 1.415.65 2.196zm-1.953 1.963a2.805 2.805 0 0 0 .346-3.505 2.744 2.744 0 0 0-1.226-1.022 2.697 2.697 0 0 0-1.578-.16c-.53.107-1.018.37-1.4.757-.384.387-.645.881-.751 1.419a2.815 2.815 0 0 0 .151 1.603c.206.507.555.942 1.003 1.248.449.306.977.47 1.517.472.726 0 1.423-.291 1.938-.812z"/></g><g><path fill="#332208" d="M13.072 16.908a2.754 2.754 0 0 1 .339 3.443 2.696 2.696 0 0 1-1.205 1.005 2.65 2.65 0 0 1-1.551.156c-.521-.105-1-.364-1.376-.745a2.74 2.74 0 0 1-.737-1.394 2.765 2.765 0 0 1 .15-1.575c.203-.499.546-.925.987-1.225.441-.3.96-.462 1.491-.463.713 0 1.397.287 1.902.798zm-1.902 3.493c.41 0 .802-.165 1.092-.458a1.58 1.58 0 0 0 .195-1.974 1.545 1.545 0 0 0-.69-.576 1.519 1.519 0 0 0-1.677.336 1.585 1.585 0 0 0-.338 1.702c.115.285.312.53.564.703.253.172.55.265.854.266z"/></g><g><path fill="#332208" d="M28.187 21.18a2.29 2.29 0 0 1 1.63.684 2.36 2.36 0 0 1 .29 2.95 2.31 2.31 0 0 1-1.033.861 2.27 2.27 0 0 1-2.508-.504 2.37 2.37 0 0 1-.502-2.545 2.33 2.33 0 0 1 .845-1.05 2.278 2.278 0 0 1 1.278-.396zm0 3.51c.307 0 .602-.123.82-.343a1.186 1.186 0 0 0 .147-1.481 1.16 1.16 0 0 0-.518-.433 1.14 1.14 0 0 0-1.26.252 1.179 1.179 0 0 0-.253 1.277c.087.215.234.398.423.528.19.13.413.2.641.2z"/></g><g><path fill="#332208" d="M40.437 13.214a2.29 2.29 0 0 1-1.63-.684 2.36 2.36 0 0 1-.29-2.95 2.31 2.31 0 0 1 1.033-.862 2.27 2.27 0 0 1 2.508.505c.323.326.542.742.632 1.195.089.453.044.923-.13 1.35a2.33 2.33 0 0 1-.845 1.05 2.278 2.278 0 0 1-1.278.396zm-.82-3.167a1.186 1.186 0 0 0-.146 1.481c.127.193.307.343.518.432a1.14 1.14 0 0 0 1.259-.252 1.179 1.179 0 0 0 .254-1.276 1.17 1.17 0 0 0-.424-.528 1.144 1.144 0 0 0-1.46.143z"/></g><g><path fill="#332208" d="M46.974 31.244a.59.59 0 0 1-.085.519.575.575 0 0 1-.462.237H.573a.567.567 0 0 1-.466-.243.587.587 0 0 1-.076-.527L6.33 12.538a.581.581 0 0 1 .538-.394l13.435-.09-1.262-1.707C18.1 9.04 17.638 7.51 17.735 6.032a6.606 6.606 0 0 1 1.87-4.208 6.125 6.125 0 0 1 1.989-1.35 6.05 6.05 0 0 1 4.693 0c.744.313 1.42.772 1.99 1.35a6.606 6.606 0 0 1 1.87 4.209 6.542 6.542 0 0 1-1.307 4.315l-1.459 1.975 9.454-.176a3.931 3.931 0 0 1-.174-1.422c.137-2.117 1.845-3.776 3.89-3.776s3.753 1.66 3.89 3.777a4.095 4.095 0 0 1-.816 2.7l-1.512 2.045zm-9.169-20.443a2.999 2.999 0 0 0 .592 1.932l2.153 2.913 2.158-2.919a2.92 2.92 0 0 0 .588-1.924c-.085-1.323-1.135-2.69-2.746-2.69-1.61 0-2.66 1.367-2.745 2.688zm-5.419 2.592l.644 5.342 8.887-.002-.651-2.114-.256.346a.574.574 0 0 1-.459.233.566.566 0 0 1-.459-.233l-2.615-3.54a6.717 6.717 0 0 1-.087-.125zm-8.445 1.644l3.983-5.388a5.368 5.368 0 0 0 1.08-3.539 5.436 5.436 0 0 0-1.539-3.464 4.98 4.98 0 0 0-1.617-1.097 4.92 4.92 0 0 0-3.814 0 4.98 4.98 0 0 0-1.617 1.097 5.435 5.435 0 0 0-1.538 3.463c-.08 1.207.305 2.466 1.083 3.545zm-9.671 15.8l-.03-7.994-2.475 3.348a.575.575 0 0 1-.458.233.566.566 0 0 1-.459-.233L7.743 21.99l-3.39.01-2.978 8.836zm-.225-9.67a3.7 3.7 0 0 0 .745-2.438c-.108-1.676-1.44-3.408-3.484-3.408-2.043 0-3.375 1.732-3.483 3.407-.054.83.212 1.698.75 2.445l2.733 3.7zm9.222 3.443a.55.55 0 0 1 .223-.04l1.033.015a3.899 3.899 0 0 1-.119-1.229c.136-2.116 1.845-3.775 3.89-3.775s3.754 1.659 3.89 3.776c.027.412-.012.826-.114 1.226l11.644-.02-1.438-4.667-9.753.003a.568.568 0 0 1-.38-.147.585.585 0 0 1-.19-.365l-.72-5.973-4.724.088-2.109 2.854a.577.577 0 0 1-.458.233.566.566 0 0 1-.459-.233l-2.323-3.144-13.877.093-2.537 7.53 2.32-.007a4.77 4.77 0 0 1-.386-2.177c.162-2.52 2.194-4.494 4.627-4.494s4.465 1.974 4.627 4.495a4.797 4.797 0 0 1-.554 2.547l.036 9.637h7.495l-.003-5.684a.59.59 0 0 1 .359-.542zm7.184.749a2.92 2.92 0 0 0 .589-1.924c-.085-1.323-1.136-2.69-2.746-2.69s-2.661 1.367-2.746 2.688a2.999 2.999 0 0 0 .593 1.932l2.153 2.913 2.157-2.92zm15.196 5.477l-1.575-5.11-12.495.022c-.065.106-.135.21-.21.31l-2.615 3.538a.576.576 0 0 1-.458.233.566.566 0 0 1-.459-.233l-2.615-3.539a4.72 4.72 0 0 1-.2-.3l-.966-.015.003 5.094z"/></g></g></g></svg>