<svg xmlns="http://www.w3.org/2000/svg" width="25" height="25" viewBox="0 0 25 25"><g><g><g><path fill="#fefefe" d="M25 12.5C25 19.392 19.393 25 12.5 25S0 19.392 0 12.5 5.607 0 12.5 0 25 5.608 25 12.5zm-1.042 0c0-6.318-5.14-11.458-11.458-11.458-6.318 0-11.458 5.14-11.458 11.458 0 6.318 5.14 11.458 11.458 11.458 6.318 0 11.458-5.14 11.458-11.458z"/></g><g><path fill="#fefefe" d="M17.474 12.06a.522.522 0 0 1 0 .876l-7.291 4.688a.519.519 0 0 1-.531.02.52.52 0 0 1-.272-.458V7.81a.52.52 0 0 1 .803-.438zm-1.245.438l-5.807-3.733v7.467z"/></g></g></g></svg>